<svg xmlns="http://www.w3.org/2000/svg" width="332" height="332"><g><path data-name="Path 4" d="M92.9 272.3H68.5q-8.9 0-15.45-7.65A26.337 26.337 0 0146.5 247a27.251 27.251 0 017.15-18.85q7.15-7.95 15.95-7.95h23.2v10.7h-17a23.274 23.274 0 00-5.45.55 10.124 10.124 0 00-4.15 2.15 10.12 10.12 0 00-3.5 8.1h30v10.8h-30a12.892 12.892 0 00.552 4.05 8.453 8.453 0 002.258 3.3 8.518 8.518 0 004.064 2.2 25.823 25.823 0 005.769.55H92.9zm82-.1h-71V260l47.1-44.4h-47.6v-13.5h71.3v14.275L128.1 260.2h46.8zm55.6.1h-24.4q-8.9 0-15.45-7.65A26.337 26.337 0 01184.1 247a27.251 27.251 0 017.15-18.85q7.15-7.95 15.95-7.95h23.2v10.7h-17a23.274 23.274 0 00-5.45.55 10.124 10.124 0 00-4.15 2.15 10.12 10.12 0 00-3.5 8.1h30v10.8h-30a12.892 12.892 0 00.552 4.05 8.453 8.453 0 002.258 3.3 8.518 8.518 0 004.064 2.2 25.823 25.823 0 005.769.55H230.5zm55.2 0h-24.4q-8.9 0-15.45-7.65A26.337 26.337 0 01239.3 247a27.251 27.251 0 017.15-18.85q7.15-7.95 15.95-7.95h23.2v10.7h-17a23.274 23.274 0 00-5.45.55 10.124 10.124 0 00-4.15 2.15 10.12 10.12 0 00-3.5 8.1h30v10.8h-30a12.892 12.892 0 00.552 4.05 8.453 8.453 0 002.258 3.3 8.518 8.518 0 004.064 2.2 25.823 25.823 0 005.769.55H285.7z" fill="#fff"/><g style="isolation:isolate"><path data-name="Path 1" d="M169.906 60c-10.715 4.749-43.834 29.8-43.834 66.115s26.757 59.906 41.642 65.385C145.523 189.856 110 162.063 110 125.75S137.122 68.675 169.906 60z" fill="#308c9e"/><path data-name="Path 2" d="M237.853 73.6c-22.013.232-54.323.24-72.48 31.688s-1.494 71.735 5.994 79.314c-5.513-3.938-20.801-20.689-26.401-41.213-4.1-15-1.426-32.43 6.672-46.456 4.837-8.378 10.55-15.175 16.98-19.963 17.024-12.681 44.573-13.181 69.235-3.37z" fill="#f8c400"/><path data-name="Path 3" d="M213.007 98.354c-3.569 3.071-22.059 19.441-23.96 37.624-.518 4.957.508 12.246 2.472 15.646 2.619 4.535 7.191 8.388 15.646 10.654 12.067 3.233 26.284-.209 34.336-2.411-5.26 2.52-20.641 9.316-35.432 10.447-14.018 1.072-28.657-3.117-32.318-16.781-3.514-13.115 5.774-29.814 20.411-42.492 5.604-4.853 12.045-9.758 18.845-12.687z" fill="#284998"/></g></g></svg>